<svg version="1.1" xmlns="http://www.w3.org/2000/svg" xmlns:xlink="http://www.w3.org/1999/xlink" width="750" height="1000" viewbox="0 0 750 1000">
	<path d="m750 82.31.003 798.568c-37.324 20.569-80.187 35.287-128.305 38.102-7.487.438-13.528-6.541-13.528-13.57V678.16c0-7.305 5.001-13.568 13.578-13.568H655.6c46.308 0 83.936-37.209 84.684-83.394l.011-1.402V410.204c0-46.363-37.165-84.036-83.294-84.785l-1.4-.011h-33.902c-7.316 0-13.528-5.504-13.528-13.503V108.284c0-7.312 4.265-10.813 7.694-12.413l.377-.17.37-.155.358-.14.348-.127.334-.113.473-.146.436-.12.392-.094.234-.05C662.56 85.911 707.85 80.63 750 82.31zm-216.36 53.236v176.33c0 8.142-6.667 13.532-13.695 13.532h-33.736c-46.308 0-83.936 37.209-84.684 83.394l-.01 1.402v169.592c0 46.363 37.164 84.036 83.294 84.785l1.4.011h33.675c9.39 0 13.756 7.795 13.756 13.605v213.25c0 8.894-7.647 15.99-17.108 13.297C307.84 845.344 100 598.934 100 460.954c0-144.908 208.567-272.424 416.532-338.804 8.02-2.56 17.108 4.836 17.108 13.396z" 
		fill-opacity=".03" fill="#000" fill-rule="evenodd" />
</svg>